<svg version="1.0" xmlns="http://www.w3.org/2000/svg"
 width="929.000000pt" height="145.000000pt" viewBox="0 0 929.000000 145.000000"
 preserveAspectRatio="xMidYMid meet">

<g transform="translate(0.000000,145.000000) scale(0.100000,-0.100000)"
fill="#ffffff" stroke="none">
<path d="M2550 720 l0 -670 114 0 115 0 3 293 c3 278 4 294 25 333 84 158 283
165 361 14 21 -43 22 -53 22 -342 l0 -298 115 0 116 0 -3 353 -3 352 -29 59
c-62 126 -165 189 -311 190 -108 0 -170 -22 -240 -86 l-55 -50 0 261 0 261
-115 0 -115 0 0 -670z"/>
<path d="M5802 723 l3 -668 115 0 115 0 3 668 2 667 -120 0 -120 0 2 -667z"/>
<path d="M7390 720 l0 -670 115 0 115 0 0 50 0 50 50 -38 c70 -53 129 -72 226
-72 136 0 234 40 317 129 85 91 117 187 118 351 0 164 -39 275 -127 366 -135
138 -399 162 -532 48 -22 -18 -43 -34 -46 -34 -3 0 -6 110 -6 245 l0 245 -115
0 -115 0 0 -670z m578 58 c93 -43 137 -137 130 -277 -9 -167 -96 -261 -243
-261 -72 0 -126 23 -175 73 -54 55 -73 119 -68 231 3 83 7 100 34 142 69 112
199 149 322 92z"/>
<path d="M205 1273 c-33 -59 -77 -138 -98 -177 -21 -38 -47 -86 -59 -107 l-21
-38 65 -113 c36 -62 83 -144 103 -183 73 -133 63 -126 172 -123 l95 3 34 58
33 57 -97 0 -98 0 -83 147 c-55 99 -80 154 -77 168 6 21 124 235 151 273 15
21 21 22 173 22 86 0 162 -4 168 -8 10 -7 26 -33 120 -203 l54 -96 -119 -211
-118 -210 53 -94 c29 -51 82 -146 116 -210 l63 -118 241 0 240 0 71 128 c39
70 83 150 98 177 15 28 36 65 47 82 l20 33 -90 157 c-49 87 -101 182 -116 211
l-26 52 -103 0 -102 0 -27 -50 c-16 -28 -28 -55 -28 -60 0 -6 38 -10 95 -10
l94 0 17 -32 c9 -18 45 -83 80 -144 35 -62 64 -116 64 -122 0 -5 -36 -75 -81
-156 l-81 -146 -171 2 -171 3 -31 55 c-17 30 -55 97 -84 148 l-53 92 35 63
c19 34 71 127 116 206 44 79 81 149 81 155 0 6 -8 25 -18 41 -10 17 -42 75
-71 130 -29 55 -59 107 -66 115 -7 8 -27 43 -44 78 l-31 62 -238 0 -237 0 -60
-107z"/>
<path d="M4004 995 c-116 -25 -206 -85 -264 -175 -166 -258 -80 -613 179 -737
70 -34 84 -37 187 -41 85 -3 125 0 170 13 149 43 266 155 289 278 l7 37 -111
0 c-107 0 -112 -1 -120 -23 -27 -71 -108 -117 -205 -117 -123 0 -228 87 -252
207 l-6 33 343 2 344 3 3 74 c5 132 -48 263 -144 351 -54 49 -110 76 -202 95
-81 18 -138 18 -218 0z m239 -201 c42 -30 79 -85 91 -136 l6 -28 -225 0 c-220
0 -225 0 -225 20 0 30 34 93 69 127 40 40 83 53 169 49 62 -3 80 -8 115 -32z"/>
<path d="M6595 995 c-165 -36 -276 -140 -300 -283 l-7 -42 105 0 105 0 6 35
c24 124 233 170 333 73 49 -48 58 -139 14 -153 -10 -3 -80 -7 -154 -10 -162
-4 -235 -22 -302 -73 -74 -56 -100 -115 -100 -222 1 -98 20 -146 80 -198 74
-65 109 -77 230 -77 100 0 115 2 161 27 28 15 65 43 82 63 l32 36 0 -61 0 -60
115 0 116 0 -3 353 c-3 343 -4 353 -26 398 -79 158 -282 239 -487 194z m283
-585 c-7 -65 -51 -138 -103 -167 -80 -45 -180 -39 -231 12 -33 33 -34 110 -2
150 35 45 70 54 212 55 l129 0 -5 -50z"/>
<path d="M8780 996 c-72 -15 -155 -61 -191 -106 -33 -39 -59 -115 -59 -170 0
-61 29 -139 67 -181 39 -43 115 -72 273 -104 93 -19 154 -45 164 -70 23 -61
-11 -115 -84 -135 -101 -27 -203 24 -225 113 l-7 27 -105 0 -106 0 7 -51 c14
-107 85 -196 195 -247 51 -24 67 -26 186 -27 119 0 134 2 185 26 116 54 170
127 178 240 9 127 -41 227 -137 270 -25 11 -106 31 -179 44 -73 13 -144 30
-157 39 -75 49 -42 150 53 163 86 12 160 -25 188 -94 l14 -33 106 0 107 0 -7
42 c-22 134 -134 231 -296 257 -79 13 -99 13 -170 -3z"/>
<path d="M4700 985 c0 -6 266 -392 288 -417 8 -10 12 -23 9 -31 -3 -7 -77
-118 -166 -246 -89 -127 -161 -234 -161 -236 0 -3 55 -5 123 -5 l122 0 104
150 c58 83 108 150 112 150 4 0 40 -46 80 -102 40 -57 88 -124 107 -150 l34
-48 119 0 c65 0 119 3 119 6 0 3 -74 114 -165 245 -102 148 -163 244 -158 252
4 7 71 103 149 214 79 112 146 207 149 213 4 6 -39 10 -123 10 l-128 0 -89
-130 c-48 -71 -92 -127 -96 -124 -5 3 -47 61 -95 130 l-85 124 -125 0 c-68 0
-124 -2 -124 -5z"/>
</g>
</svg>
