<?xml version="1.0" standalone="no"?>
<!DOCTYPE svg PUBLIC "-//W3C//DTD SVG 20010904//EN"
 "http://www.w3.org/TR/2001/REC-SVG-20010904/DTD/svg10.dtd">
<svg version="1.0" xmlns="http://www.w3.org/2000/svg"
 width="225.000000pt" height="225.000000pt" viewBox="0 0 225.000000 225.000000"
 preserveAspectRatio="xMidYMid meet">

<g transform="translate(0.000000,225.000000) scale(0.100000,-0.100000)"
fill="#ffffff" stroke="none">
<path d="M903 2239 c-135 -10 -293 -34 -433 -65 -201 -45 -467 -133 -463 -152
1 -5 14 -35 28 -67 16 -37 29 -55 37 -52 220 99 488 169 754 197 150 16 585 8
719 -14 193 -31 399 -88 593 -165 l53 -21 29 62 28 63 -21 11 c-44 24 -236 86
-366 119 -304 78 -649 108 -958 84z"/>
<path d="M725 2014 c-183 -24 -394 -80 -552 -146 l-73 -31 26 -31 c42 -51 134
-124 205 -161 l67 -35 7 29 c16 74 81 115 206 131 77 9 199 14 199 7 0 -1 70
-394 155 -872 85 -478 155 -874 155 -879 0 -40 27 103 160 854 83 470 154 866
157 879 l6 24 113 -7 c183 -11 261 -46 285 -126 l12 -39 56 29 c81 42 108 62
179 132 l63 62 -33 17 c-47 24 -227 86 -319 109 -166 43 -433 81 -448 64 -4
-5 -56 -69 -115 -142 -76 -94 -111 -130 -119 -123 -7 5 -59 68 -117 140 -120
149 -97 139 -275 115z"/>
</g>
</svg>
